<?xml version="1.0" standalone="no"?>
<!DOCTYPE svg PUBLIC "-//W3C//DTD SVG 20010904//EN"
 "http://www.w3.org/TR/2001/REC-SVG-20010904/DTD/svg10.dtd">
<svg version="1.0" xmlns="http://www.w3.org/2000/svg"
 width="446.000000pt" height="446.000000pt" viewBox="0 0 446.000000 446.000000"
 preserveAspectRatio="xMidYMid meet">
<metadata>
Created by potrace 1.11, written by Peter Selinger 2001-2013
</metadata>
<g transform="translate(0.000000,446.000000) scale(0.100000,-0.100000)"
fill="#000000" stroke="none">
<path d="M2175 4363 c-27 -48 -54 -95 -60 -105 -5 -9 -37 -63 -69 -120 -33
-57 -75 -129 -94 -161 l-34 -58 -32 54 c-18 30 -36 62 -40 72 -3 10 -8 16 -10
14 -2 -2 -38 -64 -80 -137 -43 -73 -87 -150 -99 -171 -12 -21 -51 -88 -85
-149 -35 -62 -69 -112 -75 -113 -7 0 -306 0 -664 -1 -359 0 -651 -3 -649 -6 2
-4 29 -52 61 -107 31 -55 62 -106 67 -112 12 -14 2 -16 -69 -13 -58 2 -67 -6
-45 -38 11 -15 40 -63 64 -107 67 -118 80 -141 138 -240 29 -49 61 -105 71
-122 10 -18 69 -119 130 -225 105 -181 145 -250 214 -373 15 -27 31 -54 35
-60 4 -5 19 -30 32 -55 14 -25 83 -144 153 -265 70 -121 179 -310 243 -420 63
-110 155 -270 205 -355 49 -85 100 -173 112 -195 90 -158 168 -291 175 -298 4
-5 27 23 50 63 23 40 45 68 50 63 4 -4 57 -96 119 -203 61 -107 118 -206 126
-220 9 -14 36 -62 63 -107 26 -45 49 -83 52 -83 3 0 21 28 40 62 19 35 47 83
62 108 15 25 31 52 35 60 4 8 33 59 64 112 32 53 67 115 79 137 11 23 24 41
29 41 5 0 24 -25 41 -55 17 -30 33 -55 36 -55 2 0 18 25 36 56 18 30 38 63 43
72 53 89 126 214 142 242 11 19 51 87 88 150 37 63 79 135 93 160 14 25 42 72
62 105 20 33 48 80 62 105 14 25 72 124 128 220 57 96 124 211 150 255 25 44
85 145 132 225 47 80 137 236 201 347 64 111 126 217 137 235 11 18 23 40 27
48 4 8 19 35 33 60 15 25 71 122 125 215 54 94 108 187 121 208 l24 37 -62 1
c-35 1 -67 1 -71 0 -5 -1 -6 2 -4 6 65 111 127 223 127 230 0 4 -198 8 -440 7
-242 -1 -440 3 -440 7 0 5 9 25 20 44 l20 36 -67 -1 c-38 -1 -130 -1 -206 -1
-121 1 -138 3 -144 19 -4 9 -27 51 -51 92 -25 41 -54 91 -64 110 -55 99 -150
260 -154 260 -2 0 -22 -32 -45 -70 -33 -57 -44 -68 -55 -59 -8 6 -14 15 -14
19 0 4 -55 101 -121 216 -135 231 -184 318 -201 352 -6 12 -14 22 -17 22 -3 0
-28 -39 -56 -87z"/>
</g>
</svg>
